<svg enable-background="new 0 0 122.9 122.9" viewBox="0 0 122.9 122.9" xmlns="http://www.w3.org/2000/svg"><path d="m61.4 0c33.9 0 61.5 27.5 61.5 61.4s-27.5 61.5-61.4 61.5c-34 0-61.5-27.5-61.5-61.4 0-16.3 6.5-32 18-43.5s27.1-18 43.4-18zm15.6 57.4-7.2 4.1c0 .5-.1 1.1-.2 1.6-1.2 4.2-5.5 6.7-9.8 5.6-.5-.1-1.1-.4-1.6-.6l-7.7 4.4 30.9 22.8zm-30.5 8.5 7.4-4.2c-.1-.9 0-1.8.2-2.7 1.2-4.2 5.5-6.7 9.8-5.6.9.3 1.8.7 2.5 1.2l6.5-3.8-30.8-22.7s4.4 37.8 4.4 37.8zm48.9-38.4c-18.8-18.8-49.1-18.8-67.9-.1s-18.9 49.1-.1 67.9 49.1 18.8 67.9.1c9-9 14.1-21.2 14.1-34 0-12.7-5-24.9-14-33.9z" fill="#114d4d"/></svg>