<?xml version="1.0" encoding="utf-8"?>
<!-- Generator: Adobe Illustrator 25.4.1, SVG Export Plug-In . SVG Version: 6.00 Build 0)  -->
<svg version="1.1" id="Layer_1" xmlns="http://www.w3.org/2000/svg" xmlns:xlink="http://www.w3.org/1999/xlink" x="0px" y="0px"
	 viewBox="0 0 122.9 122.9" style="enable-background:new 0 0 122.9 122.9;" xml:space="preserve">
<style type="text/css">
	.st0{fill:#114D4D;}
</style>
<path class="st0" d="M61.4,0c33.9,0,61.5,27.5,61.5,61.4s-27.5,61.5-61.4,61.5C27.5,122.9,0,95.4,0,61.5C0,45.2,6.5,29.5,18,18
	C29.5,6.5,45.1,0,61.4,0z M77,57.4l-7.2,4.1c0,0.5-0.1,1.1-0.2,1.6c-1.2,4.2-5.5,6.7-9.8,5.6c-0.5-0.1-1.1-0.4-1.6-0.6l-7.7,4.4
	l30.9,22.8L77,57.4z M46.5,65.9l7.4-4.2c-0.1-0.9,0-1.8,0.2-2.7c1.2-4.2,5.5-6.7,9.8-5.6c0.9,0.3,1.8,0.7,2.5,1.2l6.5-3.8L42.1,28.1
	C42.1,28.1,46.5,65.9,46.5,65.9z M95.4,27.5C76.6,8.7,46.3,8.7,27.5,27.4S8.6,76.5,27.4,95.3s49.1,18.8,67.9,0.1
	c9-9,14.1-21.2,14.1-34C109.4,48.7,104.4,36.5,95.4,27.5z"/>
</svg>
