<svg enable-background="new 0 0 358.3 358.3" viewBox="0 0 358.3 358.3" xmlns="http://www.w3.org/2000/svg"><path d="m251.8 27c-27.4 0-53.1 10.2-72.6 28.6-19.6-18.3-45.3-28.6-72.7-28.6-58.7 0-106.5 47.8-106.5 106.5 0 28.9 9.5 57.4 28.3 84.6 14.5 21.1 34.6 41.4 59.7 60.5 42.1 32 83.6 49.5 85.4 50.2l5.7 2.4 5.7-2.3c1.8-.7 43.3-17.9 85.4-49.8 25.1-19 45.2-39.4 59.7-60.5 18.8-27.3 28.3-55.9 28.3-85.1.1-58.7-47.7-106.5-106.4-106.5zm-72.6 271.6c-28-13-149.2-74.4-149.2-165.1 0-42.1 34.3-76.5 76.5-76.5 24 0 46.1 10.9 60.7 30l11.9 15.5 11.9-15.5c14.6-19.1 36.8-30 60.7-30 42.2 0 76.5 34.3 76.5 76.5.1 91.4-121 152.3-149 165.1z" fill="#114d4d"/></svg>