<?xml version="1.0" encoding="utf-8"?>
<!-- Generator: Adobe Illustrator 25.4.1, SVG Export Plug-In . SVG Version: 6.00 Build 0)  -->
<svg version="1.1" id="Capa_1" xmlns="http://www.w3.org/2000/svg" xmlns:xlink="http://www.w3.org/1999/xlink" x="0px" y="0px"
	 viewBox="0 0 358.3 358.3" style="enable-background:new 0 0 358.3 358.3;" xml:space="preserve">
<style type="text/css">
	.st0{fill:#114D4D;}
</style>
<path id="XMLID_169_" class="st0" d="M251.8,27c-27.4,0-53.1,10.2-72.6,28.6C159.6,37.3,133.9,27,106.5,27C47.8,27,0,74.8,0,133.5
	c0,28.9,9.5,57.4,28.3,84.6c14.5,21.1,34.6,41.4,59.7,60.5c42.1,32,83.6,49.5,85.4,50.2l5.7,2.4l5.7-2.3
	c1.8-0.7,43.3-17.9,85.4-49.8c25.1-19,45.2-39.4,59.7-60.5c18.8-27.3,28.3-55.9,28.3-85.1C358.3,74.8,310.5,27,251.8,27z
	 M179.2,298.6c-28-13-149.2-74.4-149.2-165.1C30,91.4,64.3,57,106.5,57c24,0,46.1,10.9,60.7,30l11.9,15.5L191,87
	c14.6-19.1,36.8-30,60.7-30c42.2,0,76.5,34.3,76.5,76.5C328.3,224.9,207.2,285.8,179.2,298.6z"/>
</svg>
