<?xml version="1.0" encoding="utf-8"?>
<!-- Generator: Adobe Illustrator 25.4.1, SVG Export Plug-In . SVG Version: 6.00 Build 0)  -->
<svg version="1.2" baseProfile="tiny" id="Capa_1" xmlns="http://www.w3.org/2000/svg" xmlns:xlink="http://www.w3.org/1999/xlink"
	 x="0px" y="0px" viewBox="0 0 583.5 583.5" overflow="visible" xml:space="preserve">
<path fill="#114D4D" d="M579.1,75.9l-58-64.7c-2.9-3.2-7-5.1-11.4-5.1H291.7H73.8c-4.3,0-8.5,1.8-11.4,5.1l-58,64.7
	c-2.9,3.2-4.2,7.4-3.8,11.7l42.9,451.3l2.5,24.8c0.8,7.8,7.4,13.8,15.2,13.8h24.9h205.6h205.6h24.9c7.9,0,14.4-5.9,15.2-13.8
	l2.5-24.8l42.9-451.3C583.3,83.3,581.9,79.1,579.1,75.9z M386.5,338.7c-25.3,25.3-59,39.3-94.8,39.3S222.3,364,197,338.7
	c-25.3-25.3-39.3-59-39.3-94.8c0-11.8,9.6-21.4,21.4-21.4c11.8,0,21.4,9.6,21.4,21.4c0,50.3,40.9,91.2,91.2,91.2
	c50.3,0,91.2-40.9,91.2-91.2c0-11.8,9.6-21.4,21.4-21.4c11.8,0,21.4,9.6,21.4,21.4C425.8,279.7,411.8,313.4,386.5,338.7z"/>
<path fill="#FFFFFF" d="M81.6,46.7c2.9-3.2,7-5.1,11.4-5.1h198.8h198.8c4.3,0,8.5,1.8,11.4,5.1l33,36.8H291.7H48.5L81.6,46.7z"/>
</svg>
