<svg viewBox="0 0 583.5 583.5" xmlns="http://www.w3.org/2000/svg"><path d="m579.1 75.9-58-64.7c-2.9-3.2-7-5.1-11.4-5.1h-218-217.9c-4.3 0-8.5 1.8-11.4 5.1l-58 64.7c-2.9 3.2-4.2 7.4-3.8 11.7l42.9 451.3 2.5 24.8c.8 7.8 7.4 13.8 15.2 13.8h24.9 205.6 205.6 24.9c7.9 0 14.4-5.9 15.2-13.8l2.5-24.8 42.9-451.3c.5-4.3-.9-8.5-3.7-11.7zm-192.6 262.8c-25.3 25.3-59 39.3-94.8 39.3s-69.4-14-94.7-39.3-39.3-59-39.3-94.8c0-11.8 9.6-21.4 21.4-21.4s21.4 9.6 21.4 21.4c0 50.3 40.9 91.2 91.2 91.2s91.2-40.9 91.2-91.2c0-11.8 9.6-21.4 21.4-21.4s21.4 9.6 21.4 21.4c.1 35.8-13.9 69.5-39.2 94.8z" fill="#114d4d"/><path d="m81.6 46.7c2.9-3.2 7-5.1 11.4-5.1h198.8 198.8c4.3 0 8.5 1.8 11.4 5.1l33 36.8h-243.3-243.2z" fill="#fff"/></svg>