<?xml version="1.0" encoding="utf-8"?>
<!-- Svg Vector Icons : http://www.onlinewebfonts.com/icon -->
<!DOCTYPE svg PUBLIC "-//W3C//DTD SVG 1.1//EN" "http://www.w3.org/Graphics/SVG/1.1/DTD/svg11.dtd">
<svg version="1.1" xmlns="http://www.w3.org/2000/svg" xmlns:xlink="http://www.w3.org/1999/xlink" x="0px" y="0px" viewBox="0 0 1000 1000" enable-background="new 0 0 1000 1000" xml:space="preserve">
<metadata> Svg Vector Icons : http://www.onlinewebfonts.com/icon </metadata>
<g><path d="M980.6,344c-0.1-0.5-0.2-1-0.3-1.4c-0.4-2-1-3.9-1.8-5.8l-82.8-202.1c-14.3-41.9-55.5-67.6-103.8-67.7H210.6c-48.8,0-86.8,25.5-100.5,65.7L21,338.9c-0.4,1.2-0.9,3-1.3,4.9c-6.5,19.4-9.7,39.4-9.7,59.5c0.1,70.5,39.5,134.9,103,168c0,0,0,0,0,0c0,0,0,0,0,0l0,0c0,0,0,0,0,0c26.1,13.7,56.8,20.6,91.4,20.6c58-0.2,111.7-25.1,148.3-67.9c36.4,42.4,89.7,67.2,147.6,67.5c57.4-0.4,110.5-25.3,146.8-67.7c36.6,42.7,90.4,67.6,148.7,67.6c35.3-0.2,66.6-7.5,92.9-21.6C951.3,536.4,990,472.3,990,402.5C990.1,382.4,986.7,362.3,980.6,344L980.6,344z M855,509.1c-16,8.6-36,13-59.2,13.1c-43,0-82.3-21.4-105.2-57.8c-1.6-3.4-4.3-9.1-9.4-14.6c-5.8-6.4-16.4-14-33.9-14c-14.1,0-26.8,5.6-34,14.3c-4.8,5.3-7.4,10.5-9.3,14.3c-22.6,35.9-61.5,57.5-103.7,57.8c-42.7-0.2-81.7-21.8-104.5-57.9c-1.6-3.2-4.2-8.5-8.4-13.1c-16.6-19.4-53.8-18.4-68.3-1.5c-5.3,5.7-8.1,11.5-9.9,15.4c-22.8,35.9-62.1,57.4-104.9,57.5c-22.8,0-42.4-4.2-58.1-12.4h0h0c-40.4-21.1-65.6-62.1-65.6-107c0-13.3,2.3-26.6,6.8-39.7c0.3-0.9,0.6-2,0.8-3.1L176,157.3c1.8-5.2,4.2-22,31.5-22H800c11.2,0.7,22.5,3.6,29.4,23.4l82.1,200.5c0.3,1.4,0.7,2.8,1,4c4.6,13.1,6.8,26.3,6.8,39.5C919.5,447,894.8,487.8,855,509.1L855,509.1z M881.5,620.3c-19.6,0-35.4,15.5-35.4,34.6l0.1,189c0,10.7-12.5,20.8-23.4,20.8h-661c-10.9,0-22.8-12.1-22.8-22.8V659.5c0-19.1-13.5-35.4-33-35.4H106c-19.5,0-35.3,15.5-35.3,34.7L71,844.5c0,48.8,40.6,88.6,90.5,88.6l664.9-0.4c49.9-0.1,87.5-41.9,87.5-90.8V659.5C914,640.4,901,620.3,881.5,620.3L881.5,620.3z M777.3,363.2H207.4c-19.5,0-31.7-14.5-31.7-33.6s15.8-34.6,35.3-34.6h565.4c19.5,0,35.3,15.5,35.3,34.6s-15.8,34.6-35.3,34.6L777.3,363.2z"/></g>
</svg>